<svg width="17" height="11" viewBox="0 0 17 11" fill="none" xmlns="http://www.w3.org/2000/svg">
<path fill-rule="evenodd" clip-rule="evenodd" d="M8.66297 4.61806C9.18544 3.483 8.70391 2.54779 7.37379 1.96856L5.17014 1.05866C4.45622 0.763905 3.6382 0.885377 3.04058 1.37489L1.01398 3.03488L0.955046 3.62592L0.860107 8.4599V9.2999H3.31206L8.31274 10.7208C8.94357 10.9 9.62188 10.7738 10.1462 10.3797C13.4412 7.90308 15.6427 6.23075 15.9761 5.92074C16.7844 5.16921 17.1026 4.33363 16.5267 3.50996C16.0612 2.84418 15.2761 2.77316 14.3031 3.21367L9.57071 5.62052L8.24002 5.19736C8.41159 5.0494 8.55308 4.85678 8.66297 4.61806Z" fill="#1565D8"/>
</svg>
