<svg width="15" height="17" viewBox="0 0 15 17" fill="none" xmlns="http://www.w3.org/2000/svg">
<path opacity="0.3" fill-rule="evenodd" clip-rule="evenodd" d="M14.2107 0.86094H13.2001V0.65048C13.2001 0.302338 12.918 0.0200195 12.5701 0.0200195C12.2221 0.0200195 11.9401 0.302338 11.9401 0.65048V0.86094H11.7418C10.9299 0.86094 10.2718 1.51975 10.2718 2.33232V2.75342C10.2718 3.56599 10.9299 4.2248 11.7418 4.2248H13.4101C13.526 4.2248 13.6201 4.31897 13.6201 4.43526V4.85508C13.6201 4.97137 13.526 5.06554 13.4101 5.06554H11.4824C11.3892 4.84436 11.1736 4.68807 10.9209 4.68038C10.5731 4.66979 10.2826 4.9434 10.2721 5.29139L10.2604 5.67685C10.2496 6.03233 10.5346 6.32646 10.8901 6.32646H11.9401V6.52956C11.9401 6.8777 12.2221 7.16002 12.5701 7.16002C12.918 7.16002 13.2001 6.8777 13.2001 6.52956V6.32646H13.4101C14.222 6.32646 14.8801 5.66765 14.8801 4.85508V4.43526C14.8801 3.62269 14.222 2.96388 13.4101 2.96388H11.7418C11.6258 2.96388 11.5318 2.8697 11.5318 2.75342V2.33232C11.5318 2.21604 11.6258 2.12186 11.7418 2.12186H13.6631C13.7726 2.31404 13.979 2.44018 14.2107 2.44018C14.5587 2.44018 14.8407 2.15786 14.8407 1.80972V1.4914C14.8407 1.14326 14.5587 0.86094 14.2107 0.86094ZM1.44006 6.95002H1.65006V14.93H1.44006C1.09212 14.93 0.810059 15.2121 0.810059 15.56C0.810059 15.908 1.09212 16.19 1.44006 16.19H2.28006C2.628 16.19 2.91006 15.908 2.91006 15.56V6.32002C2.91006 5.97208 2.628 5.69002 2.28006 5.69002H1.44006C1.09212 5.69002 0.810059 5.97208 0.810059 6.32002C0.810059 6.66796 1.09212 6.95002 1.44006 6.95002Z" fill="#1565D8"/>
</svg>
